<svg version="1.1" id="Группа_1" xmlns="http://www.w3.org/2000/svg" xmlns:xlink="http://www.w3.org/1999/xlink" x="0" y="0" viewBox="0 0 269 409" xml:space="preserve"><style>.st0{fill:#44444f}</style><path class="st0" d="M268.9 5v399c0 2.8-2.2 5-5 5h-226V0h226c2.8 0 5 2.2 5 5z"/><path class="st0" d="M37.9 0v409H5c-2.8 0-5-2.2-5-5V5c0-2.8 2.2-5 5-5h32.9z"/><path d="M268.9 283.6v11.5l-13.3 7.7c-2.4 1.4-5.4.6-6.8-1.7-1.4-2.4-.7-5.4 1.7-6.9.1 0 .1 0 .1-.1l18.3-10.5zm0-27v11.5l-13.3 7.7c-2.4 1.4-5.5.6-6.8-1.8-1.4-2.4-.6-5.5 1.8-6.8l18.3-10.6z" fill="#65e496"/><path d="M37.9 0v409H5c-2.8 0-5-2.2-5-5V5c0-2.8 2.2-5 5-5h32.9z" fill="#3d3d47"/></svg>