<svg version="1.1" id="Слой_1" xmlns="http://www.w3.org/2000/svg" xmlns:xlink="http://www.w3.org/1999/xlink" x="0" y="0" viewBox="0 0 50 50" xml:space="preserve"><style>.st0{fill:#fff}.st1{fill:#231f20}.st2{fill:#9fd8f4}</style><switch><g><path class="st0" d="M19 39.4l-3.8-1.3 3.8 1.3z"/><path class="st1" d="M19 40.1h-.2L15 38.8c-.4-.1-.6-.5-.5-.9.1-.4.5-.6.9-.5l3.8 1.3c.4.1.6.5.5.9-.2.4-.4.5-.7.5z"/><ellipse transform="rotate(-71.301 13.531 37.58)" class="st1" cx="13.5" cy="37.6" rx="1.7" ry="1.7"/><path class="st0" d="M30.8 39.4l3.8-1.3-3.8 1.3z"/><path class="st1" d="M30.8 40.1c-.3 0-.6-.2-.7-.5-.1-.4.1-.8.5-.9l3.8-1.3c.4-.1.8.1.9.5.1.4-.1.8-.5.9L31 40.1h-.2z"/><ellipse transform="rotate(-18.694 36.274 37.583)" class="st1" cx="36.3" cy="37.6" rx="1.7" ry="1.7"/><circle class="st0" cx="25" cy="22.1" r="9.3"/><path class="st1" d="M25 32.1c-5.5 0-10-4.5-10-10s4.5-10 10-10 10 4.5 10 10c.1 5.5-4.5 10-10 10zm0-18.6c-4.7 0-8.6 3.9-8.6 8.6 0 4.7 3.9 8.6 8.6 8.6 4.7 0 8.6-3.9 8.6-8.6 0-4.8-3.8-8.6-8.6-8.6z"/><path class="st0" d="M25.7 22.7h-1.6c-1.2.3-2.1 1.4-2.1 2.7v2.1h6v-2.1c0-1.4-1-2.5-2.3-2.7z"/><path class="st1" d="M28 28.2h-5.9c-.4 0-.7-.3-.7-.7v-2.1c0-1.6 1.1-3 2.6-3.4h2c1.6.3 2.8 1.7 2.8 3.4v2.1c-.1.4-.5.7-.8.7zm-5.2-1.5h4.4v-1.4c0-.9-.6-1.7-1.6-2h-1.4c-.9.2-1.5 1-1.5 1.9v1.5z"/><circle class="st0" cx="25" cy="19.9" r="3.2"/><path class="st1" d="M25 23.9c-2.2 0-4-1.8-4-4s1.8-4 4-4 4 1.8 4 4-1.8 4-4 4zm0-6.5c-1.4 0-2.5 1.1-2.5 2.5s1.1 2.5 2.5 2.5 2.5-1.1 2.5-2.5-1.1-2.5-2.5-2.5z"/><path class="st0" d="M25 38.2v-6.8 6.8z"/><path class="st1" d="M25 39c-.4 0-.7-.3-.7-.7v-6.8c0-.4.3-.7.7-.7.4 0 .7.3.7.7v6.8c0 .3-.3.7-.7.7z"/><path class="st0" d="M10.2 15l5.9 3.4-5.9-3.4z"/><path class="st1" d="M16.1 19.1c-.1 0-.2 0-.4-.1l-5.9-3.4c-.3-.2-.5-.6-.3-1 .2-.3.6-.5 1-.3l5.9 3.4c.3.2.5.6.3 1-.1.3-.3.4-.6.4z"/><path class="st0" d="M39.8 15l-5.9 3.4 5.9-3.4z"/><path class="st1" d="M33.9 19.1c-.3 0-.5-.1-.6-.4-.2-.3-.1-.8.3-1l5.9-3.4c.3-.2.8-.1 1 .3.2.3.1.8-.3 1l-6 3.4c-.1.1-.2.1-.3.1z"/><circle class="st2" cx="42.9" cy="13.4" r="6.5"/><path class="st1" d="M42.9 20.7c-4 0-7.3-3.3-7.3-7.3s3.3-7.3 7.3-7.3 7.3 3.3 7.3 7.3-3.3 7.3-7.3 7.3zm0-13.1c-3.2 0-5.8 2.6-5.8 5.8s2.6 5.8 5.8 5.8c3.2 0 5.8-2.6 5.8-5.8s-2.5-5.8-5.8-5.8z"/><path class="st0" d="M43.5 14.1h-1.3c-.9.2-1.6 1.1-1.6 2.1v.8h4.6v-.8c.1-1-.7-1.9-1.7-2.1z"/><path class="st1" d="M45.3 17.8h-4.6c-.4 0-.7-.3-.7-.7v-.8c0-1.3.9-2.5 2.2-2.8h1.7c1.3.3 2.3 1.4 2.3 2.8v.7c-.2.4-.5.8-.9.8zm-3.9-1.5h3.2v-.1c0-.7-.5-1.2-1.1-1.4h-1.1c-.6.2-1 .8-1 1.5z"/><circle class="st0" cx="42.9" cy="11.9" r="2.6"/><path class="st1" d="M42.9 15.2c-1.8 0-3.3-1.5-3.3-3.3 0-1.8 1.5-3.3 3.3-3.3 1.8 0 3.3 1.5 3.3 3.3 0 1.9-1.4 3.3-3.3 3.3zm0-5.1c-1 0-1.8.8-1.8 1.8s.8 1.8 1.8 1.8 1.8-.8 1.8-1.8c.1-1-.7-1.8-1.8-1.8z"/><circle class="st2" cx="7.5" cy="13.4" r="6.5"/><path class="st1" d="M7.5 20.7c-4 0-7.3-3.3-7.3-7.3s3.3-7.3 7.3-7.3 7.3 3.3 7.3 7.3c-.1 4-3.3 7.3-7.3 7.3zm0-13.1c-3.2 0-5.8 2.6-5.8 5.8s2.6 5.8 5.8 5.8c3.2 0 5.8-2.6 5.8-5.8s-2.6-5.8-5.8-5.8z"/><path class="st0" d="M8 14.1H6.7c-.9.2-1.6 1.1-1.6 2.1v.8h4.6v-.8c.1-1-.7-1.9-1.7-2.1z"/><path class="st1" d="M9.8 17.8H5.2c-.4 0-.7-.3-.7-.7v-.8c0-1.3.9-2.5 2.2-2.8h1.7c1.3.3 2.3 1.4 2.3 2.8v.7c-.2.4-.5.8-.9.8zm-3.9-1.5h3.2v-.1c0-.7-.5-1.2-1.1-1.4H6.9c-.6.2-1 .8-1 1.5z"/><circle class="st0" cx="7.5" cy="11.9" r="2.6"/><path class="st1" d="M7.5 15.2c-1.8 0-3.3-1.5-3.3-3.3 0-1.8 1.5-3.3 3.3-3.3 1.8 0 3.3 1.5 3.3 3.3-.1 1.9-1.5 3.3-3.3 3.3zm0-5.1c-1 0-1.8.8-1.8 1.8s.8 1.8 1.8 1.8 1.8-.8 1.8-1.8-.8-1.8-1.8-1.8z"/><circle class="st2" cx="25" cy="41.8" r="6.5"/><path class="st1" d="M25 49c-4 0-7.3-3.3-7.3-7.3s3.3-7.3 7.3-7.3 7.3 3.3 7.3 7.3c0 4.1-3.3 7.3-7.3 7.3zm0-13c-3.2 0-5.8 2.6-5.8 5.8 0 3.2 2.6 5.8 5.8 5.8s5.8-2.6 5.8-5.8c0-3.2-2.6-5.8-5.8-5.8z"/><path class="st0" d="M25.6 42.5h-1.3c-.9.2-1.6 1.1-1.6 2.1v.8h4.6v-.8c0-1.1-.7-1.9-1.7-2.1z"/><path class="st1" d="M27.3 46.1h-4.6c-.4 0-.7-.3-.7-.7v-.8c0-1.3.9-2.5 2.2-2.8h1.7c1.3.3 2.3 1.4 2.3 2.8v.8c-.2.4-.5.7-.9.7zm-3.9-1.4h3.2v-.1c0-.7-.5-1.2-1.1-1.4h-1.1c-.6.2-1 .8-1 1.5z"/><circle class="st0" cx="25" cy="40.3" r="2.6"/><path class="st1" d="M25 43.6c-1.8 0-3.3-1.5-3.3-3.3 0-1.8 1.5-3.3 3.3-3.3 1.8 0 3.3 1.5 3.3 3.3 0 1.8-1.5 3.3-3.3 3.3zm0-5.1c-1 0-1.8.8-1.8 1.8s.8 1.8 1.8 1.8 1.8-.8 1.8-1.8-.8-1.8-1.8-1.8z"/><path class="st0" d="M7.5 19.9V24v-4.1z"/><path class="st1" d="M7.5 24.7c-.4 0-.7-.3-.7-.7v-4.1c0-.4.3-.7.7-.7s.7.3.7.7V24c0 .4-.3.7-.7.7z"/><circle class="st1" cx="7.5" cy="25.7" r="1.7"/><path class="st0" d="M12.1 8.4l3.4-2.2-3.4 2.2z"/><path class="st1" d="M12.1 9.1c-.2 0-.5-.1-.6-.3-.2-.3-.1-.8.2-1l3.4-2.2c.3-.2.8-.1 1 .2.2.3.1.8-.2 1L12.5 9c-.1.1-.2.1-.4.1z"/><ellipse transform="rotate(-32.221 16.972 5.355)" class="st1" cx="17" cy="5.4" rx="1.7" ry="1.7"/><path class="st0" d="M42.9 19.9V24v-4.1z"/><path class="st1" d="M42.9 24.7c-.4 0-.7-.3-.7-.7v-4.1c0-.4.3-.7.7-.7.4 0 .7.3.7.7V24c.1.4-.3.7-.7.7z"/><circle class="st1" cx="42.9" cy="25.7" r="1.7"/><path class="st0" d="M38.3 8.4l-3.4-2.2 3.4 2.2z"/><path class="st1" d="M38.3 9.1c-.1 0-.3 0-.4-.1l-3.4-2.2c-.3-.2-.4-.7-.2-1 .2-.3.7-.4 1-.2l3.4 2.2c.3.2.4.7.2 1-.1.2-.4.3-.6.3z"/><ellipse transform="rotate(-57.778 33.44 5.356)" class="st1" cx="33.4" cy="5.4" rx="1.7" ry="1.7"/></g></switch></svg>