<svg version="1.1" id="Слой_1" xmlns="http://www.w3.org/2000/svg" xmlns:xlink="http://www.w3.org/1999/xlink" x="0" y="0" viewBox="0 0 50 50" xml:space="preserve"><style>.st0{fill:#231f20}</style><switch><g><path class="st0" d="M40.3 42.6H.8c-.5 0-.8-.4-.8-.8V14.6c0-.5.4-.8.8-.8h39.5c.5 0 .8.4.8.8v27.2c0 .5-.3.8-.8.8zM1.6 41h37.9V15.4H1.6V41z"/><path class="st0" d="M20.6 33.1c-.2 0-.4-.1-.5-.2L.3 15.2c-.3-.2-.4-.6-.2-.9.1-.3.4-.5.8-.5h39.5c.3 0 .6.2.8.5.1.3 0 .7-.2.9L21.1 32.9c-.1.1-.3.2-.5.2zM3 15.4l17.6 15.8 17.6-15.8H3z"/><path class="st0" d="M.8 42.6c-.2 0-.4-.1-.6-.2-.3-.3-.3-.8 0-1.2l14.6-14.1c.3-.3.8-.3 1.2 0 .3.3.3.8 0 1.2L1.4 42.4c-.2.2-.4.2-.6.2zm39.5 0c-.2 0-.4-.1-.6-.2L25.1 28.3c-.3-.3-.3-.8 0-1.2.3-.3.8-.3 1.2 0l14.6 14.1c.3.3.3.8 0 1.2-.1.2-.4.2-.6.2z"/><circle cx="40.3" cy="13.7" r="8.9" fill="#9fd8f4"/><path class="st0" d="M40.3 23.4c-5.3 0-9.7-4.3-9.7-9.7 0-5.3 4.3-9.7 9.7-9.7 5.3 0 9.7 4.3 9.7 9.7 0 5.4-4.3 9.7-9.7 9.7zm0-17.7c-4.4 0-8 3.6-8 8s3.6 8 8 8 8-3.6 8-8c.1-4.4-3.5-8-8-8z"/><path d="M42 17.8h-2.5v-6.4c-.2.2-.3.4-.6.6l-1 .8-1.3-1.5 3.1-2.5H42v9z" fill="#020203"/></g></switch></svg>