<svg version="1.1" id="Слой_1" xmlns="http://www.w3.org/2000/svg" xmlns:xlink="http://www.w3.org/1999/xlink" x="0" y="0" viewBox="0 0 50 50" xml:space="preserve"><style>.st0{fill:#231f20}.st1{fill:#9fd8f4}</style><path class="st0" d="M24.6 46.1c-3.3 0-6.7-.9-9.6-2.5-.4-.2-.5-.7-.3-1.1.2-.4.7-.5 1.1-.3 2.7 1.5 5.7 2.3 8.8 2.3 2.8 0 5.5-.6 8-1.9.4-.2.9 0 1.1.4.2.4 0 .9-.4 1.1-2.7 1.3-5.6 2-8.7 2z"/><path class="st0" d="M29 42.5l3.6 1.1-1 3.6 2-1.1 1-3.6-3.6-1.1zm14.5-15.3c-.4 0-.8-.4-.8-.8 0-3.1-.8-6.2-2.3-8.9-1.5-2.6-3.6-4.8-6.1-6.4-.4-.2-.5-.7-.2-1.1.2-.4.7-.5 1.1-.2 2.8 1.7 5.1 4.2 6.6 7 1.6 2.9 2.5 6.3 2.5 9.6 0 .5-.3.8-.8.8z"/><path class="st0" d="M36.1 14.3l-1-3.6 3.7-1-2-1.1-3.6 1 1 3.6zM5.8 25.4c-.5 0-.8-.4-.8-.9.3-3.3 1.5-6.6 3.4-9.3 1.9-2.7 4.4-4.9 7.3-6.4.4-.2.9 0 1.1.3.2.4 0 .9-.3 1.1-2.7 1.4-5 3.4-6.7 5.9C8 18.6 7 21.6 6.7 24.7c-.1.4-.5.7-.9.7z"/><path class="st0" d="M8.7 21.6l-2.8 2.6-2.6-2.9-.1 2.3 2.5 2.8 2.9-2.5z"/><path class="st1" d="M30.2 6.4c0 3.1-2.5 5.6-5.6 5.6-3.1 0-5.6-2.5-5.6-5.6C19 3.3 21.5.8 24.6.8c3.1 0 5.6 2.5 5.6 5.6z"/><path class="st0" d="M24.6 12.7c-3.5 0-6.3-2.8-6.3-6.3S21.1.1 24.6.1 31 2.9 31 6.4s-2.9 6.3-6.4 6.3zm0-11.1c-2.6 0-4.8 2.1-4.8 4.8s2.1 4.8 4.8 4.8 4.8-2.1 4.8-4.8-2.1-4.8-4.8-4.8z"/><path class="st1" d="M30.3 19.3H19v-1.7c0-3.1 2.5-5.7 5.7-5.7 3.1 0 5.7 2.5 5.7 5.7v1.7z"/><path class="st0" d="M30.3 20.1H19c-.4 0-.8-.4-.8-.8v-1.7c0-3.6 2.9-6.5 6.5-6.5s6.5 2.9 6.5 6.5v1.7c-.1.5-.4.8-.9.8zm-10.6-1.6h9.8v-.9c0-2.7-2.2-4.9-4.9-4.9s-4.9 2.2-4.9 4.9v.9z"/><path class="st1" d="M49.1 35.8c0 3.1-2.5 5.6-5.6 5.6-3.1 0-5.6-2.5-5.6-5.6s2.5-5.6 5.6-5.6c3.1.1 5.6 2.6 5.6 5.6z"/><path class="st0" d="M43.5 42.2c-3.5 0-6.3-2.8-6.3-6.3s2.8-6.3 6.3-6.3 6.3 2.8 6.3 6.3c.1 3.4-2.8 6.3-6.3 6.3zm0-11.1c-2.6 0-4.8 2.1-4.8 4.8s2.1 4.8 4.8 4.8c2.6 0 4.8-2.1 4.8-4.8s-2.1-4.8-4.8-4.8z"/><path class="st1" d="M49.2 48.8H37.8v-1.7c0-3.1 2.5-5.7 5.7-5.7 3.1 0 5.7 2.5 5.7 5.7v1.7z"/><path class="st0" d="M49.2 49.6H37.8c-.4 0-.8-.4-.8-.8v-1.7c0-3.6 2.9-6.5 6.5-6.5s6.5 2.9 6.5 6.5v1.7c0 .4-.4.8-.8.8zM38.6 48h9.8v-.9c0-2.7-2.2-4.9-4.9-4.9s-4.9 2.2-4.9 4.9v.9z"/><path class="st1" d="M12 35.8c0 3.1-2.5 5.6-5.6 5.6-3.1 0-5.6-2.5-5.6-5.6s2.5-5.6 5.6-5.6c3.1.1 5.6 2.6 5.6 5.6z"/><path class="st0" d="M6.5 42.2C3 42.2.2 39.4.2 35.9s2.8-6.3 6.3-6.3 6.3 2.8 6.3 6.3c0 3.4-2.8 6.3-6.3 6.3zm0-11.1c-2.6 0-4.8 2.1-4.8 4.8s2.1 4.8 4.8 4.8c2.6 0 4.8-2.1 4.8-4.8s-2.2-4.8-4.8-4.8z"/><path class="st1" d="M12.2 48.8H.8v-1.7c0-3.1 2.5-5.7 5.7-5.7 3.1 0 5.7 2.5 5.7 5.7v1.7z"/><path class="st0" d="M12.2 49.6H.8c-.4 0-.8-.4-.8-.8v-1.7c0-3.6 2.9-6.5 6.5-6.5s6.5 2.9 6.5 6.5v1.7c-.1.4-.4.8-.8.8zM1.6 48h9.8v-.9c0-2.7-2.2-4.9-4.9-4.9s-4.9 2.2-4.9 4.9v.9z"/></svg>