<svg version="1.1" id="Слой_1" xmlns="http://www.w3.org/2000/svg" xmlns:xlink="http://www.w3.org/1999/xlink" x="0" y="0" viewBox="0 0 50 50" xml:space="preserve"><style>.st1{fill:#465b65}</style><g id="surface105263"><path d="M46.2 25c0 11.7-9.5 21.2-21.2 21.2S3.8 36.7 3.8 25 13.3 3.8 25 3.8 46.2 13.3 46.2 25z" fill="#fff"/><path class="st1" d="M21.2 46.2v-6.9c0-.4.2-.6.6-.6s.6.2.6.6v6.9H25v-8.1c0-.4.2-.6.6-.6s.6.2.6.6v8.1h2.5v-6.9c0-.4.2-.6.6-.6s.7.3.7.7v6.9h2.3c.2-.4.2-.8.2-1.4V40c0-2.7-2.4-6.5-5.4-6.5H24c-2.9 0-5.4 3.9-5.4 6.5v4.9c0 .5.1 1 .3 1.4h2.3zM45.1 28s-1.6-.5-3-.5H42c-1.4 0-3.6.4-3.6.4-.1 0-.1 0-.1-.1s0-.1.1-.1 2.5-.4 3.9-.4 3 .5 3.1.5c.1 0 .1.1.1.2-.3-.1-.3 0-.4 0zm-.3 1s-1.8-.5-3.3-.5c-1.1 0-3.8.2-3.9.2-.1 0-.1 0-.1-.1s0-.1.1-.1 2.7-.2 3.9-.2c1.6 0 3.3.5 3.3.5.1 0 .1.1.1.2 0-.1 0 0-.1 0zm-40-1c-.1 0-.1 0-.1-.1s0-.1.1-.2c1-.3 3-.6 4.1-.6 1 0 4.4.2 4.5.2.1 0 .1.1.1.1 0 .1-.1.1-.1.1s-3.4-.2-4.4-.2c-1.4.2-3.2.4-4.2.7zm.4 1.9s-.1 0-.1-.1v-.2c.1 0 1.7-1 3.6-1.2 1.6-.3 5 .1 5.2.1.1 0 .1.1.1.1 0 .1-.1.1-.1.1s-3.5-.4-5.1-.1c-1.8.3-3.6 1.3-3.6 1.3z"/><path class="st1" d="M12.7 24.4c0-5.5 5.8-10.6 12.9-10.6s12.9 5 12.9 10.6-4.1 9.4-12.9 9.4-12.9-3.9-12.9-9.4z"/><path class="st1" d="M30.8 15.4s2.1-2.9 6-2.9c1.5 1.5.5 6 0 7.3l-6-4.4zm-10.3 0s-2.1-2.9-6-2.9c-1.5 1.5-.5 6 0 7.3l6-4.4zm-.4 24.5h-3.5c-1.5 0-2.9-.6-3.5-1.9-.8-1.4-1.4-2.9-3.3-4.1-.4-.3-.1-.5.5-.5.6.1 1.7.2 2.6 1.4.9 1.1 1.9 2.5 3.5 2.5s3.4 0 4.4-1.1l-.7 3.7z"/><path d="M25 0C11.2 0 0 11.2 0 25s11.2 25 25 25 25-11.2 25-25S38.8 0 25 0zm0 45C14 45 5 36 5 25S14 5 25 5s20 9 20 20-9 20-20 20z" fill="#9fd8f4"/></g></svg>