<svg version="1.1" id="Слой_1" xmlns="http://www.w3.org/2000/svg" xmlns:xlink="http://www.w3.org/1999/xlink" x="0" y="0" viewBox="0 0 50 50" xml:space="preserve"><style>.st0{fill:#231f20}.st1{fill:#fff}.st2{fill:#9fd8f4}</style><switch><g><path class="st0" d="M49.3 46.5c-.2 0-.4-.1-.5-.2-.1-.1-.2-.3-.2-.5s.1-.4.2-.5c.1-.1.3-.2.5-.2s.4.1.5.2c.1.1.2.3.2.5s-.1.4-.2.5c-.2.2-.3.2-.5.2zm-3.5-.7c0-.4.3-.7.7-.7.4 0 .7.3.7.7 0 .4-.3.7-.7.7-.3 0-.7-.3-.7-.7zm-2.7 0c0-.4.3-.7.7-.7.4 0 .7.3.7.7 0 .4-.3.7-.7.7-.3 0-.7-.3-.7-.7zm-2.7 0c0-.4.3-.7.7-.7.4 0 .7.3.7.7 0 .4-.3.7-.7.7-.3 0-.7-.3-.7-.7zm-2.7 0c0-.4.3-.7.7-.7.4 0 .7.3.7.7 0 .4-.3.7-.7.7-.3 0-.7-.3-.7-.7zm-2.7 0c0-.4.3-.7.7-.7.4 0 .7.3.7.7 0 .4-.3.7-.7.7-.3 0-.7-.3-.7-.7zm-2.6 0c0-.4.3-.7.7-.7.4 0 .7.3.7.7 0 .4-.3.7-.7.7-.4 0-.7-.3-.7-.7zm-2.7 0c0-.4.3-.7.7-.7.4 0 .7.3.7.7 0 .4-.3.7-.7.7-.4 0-.7-.3-.7-.7zm-2.7 0c0-.4.3-.7.7-.7.4 0 .7.3.7.7 0 .4-.3.7-.7.7-.4 0-.7-.3-.7-.7zm-2.7 0c0-.4.3-.7.7-.7.4 0 .7.3.7.7 0 .4-.3.7-.7.7-.4 0-.7-.3-.7-.7zm-2.7 0c0-.4.3-.7.7-.7.4 0 .7.3.7.7 0 .4-.3.7-.7.7-.4 0-.7-.3-.7-.7zm-2.7 0c0-.4.3-.7.7-.7.4 0 .7.3.7.7 0 .4-.3.7-.7.7-.4 0-.7-.3-.7-.7zm-2.7 0c0-.4.3-.7.7-.7.4 0 .7.3.7.7 0 .4-.3.7-.7.7-.4 0-.7-.3-.7-.7zm-2.7 0c0-.4.3-.7.7-.7.4 0 .7.3.7.7 0 .4-.3.7-.7.7-.4 0-.7-.3-.7-.7zm-2.7 0c0-.4.3-.7.7-.7.4 0 .7.3.7.7 0 .4-.3.7-.7.7-.4 0-.7-.3-.7-.7zm-2.7 0c0-.4.3-.7.7-.7.4 0 .7.3.7.7 0 .4-.3.7-.7.7-.4 0-.7-.3-.7-.7zm-2.7 0c0-.4.3-.7.7-.7.4 0 .7.3.7.7 0 .4-.3.7-.7.7-.4 0-.7-.3-.7-.7zm-2.7 0c0-.4.3-.7.7-.7.4 0 .7.3.7.7 0 .4-.3.7-.7.7-.4 0-.7-.3-.7-.7zm-2 .7c-.2 0-.4-.1-.5-.2-.1-.1-.2-.3-.2-.5s.1-.4.2-.5c.1-.1.3-.2.5-.2s.4.1.5.2c.1.1.2.3.2.5s-.1.4-.2.5c-.1.2-.3.2-.5.2zM0 43.1c0-.4.3-.7.7-.7.4 0 .7.3.7.7 0 .4-.3.7-.7.7-.4.1-.7-.3-.7-.7zm0-2.7c0-.4.3-.7.7-.7.4 0 .7.3.7.7 0 .4-.3.7-.7.7-.4.1-.7-.3-.7-.7zm0-2.7c0-.4.3-.7.7-.7.4 0 .7.3.7.7 0 .4-.3.7-.7.7-.4.1-.7-.3-.7-.7zm0-2.6c0-.4.3-.7.7-.7.4 0 .7.3.7.7 0 .4-.3.7-.7.7-.4 0-.7-.3-.7-.7zm0-2.7c0-.4.3-.7.7-.7.4 0 .7.3.7.7 0 .4-.3.7-.7.7-.4 0-.7-.3-.7-.7zm0-2.7c0-.4.3-.7.7-.7.4 0 .7.3.7.7 0 .4-.3.7-.7.7-.4 0-.7-.3-.7-.7zM0 27c0-.4.3-.7.7-.7.4 0 .7.3.7.7 0 .4-.3.7-.7.7-.4 0-.7-.3-.7-.7zm0-2.7c0-.4.3-.7.7-.7.4 0 .7.3.7.7 0 .4-.3.7-.7.7-.4 0-.7-.3-.7-.7zm0-2.7c0-.4.3-.7.7-.7.4 0 .7.3.7.7 0 .4-.3.7-.7.7-.4 0-.7-.3-.7-.7zm0-2.7c0-.4.3-.7.7-.7.4 0 .7.3.7.7 0 .4-.3.7-.7.7-.4.1-.7-.3-.7-.7zm0-2.7c0-.4.3-.7.7-.7.4 0 .7.3.7.7 0 .4-.3.7-.7.7-.4.1-.7-.3-.7-.7zm0-2.7c0-.4.3-.7.7-.7.4 0 .7.3.7.7 0 .4-.3.7-.7.7-.4.1-.7-.3-.7-.7zm0-2.6c0-.4.3-.7.7-.7.4 0 .7.3.7.7 0 .4-.3.7-.7.7-.4 0-.7-.3-.7-.7zm0-2.7c0-.4.3-.7.7-.7.4 0 .7.3.7.7 0 .4-.3.7-.7.7-.4 0-.7-.3-.7-.7zm.7-2C.5 6.2.4 6.1.2 6c-.1-.1-.2-.3-.2-.5s.1-.4.2-.5c.1-.1.3-.2.5-.2s.4.1.5.2c.1.1.2.3.2.5s-.1.4-.2.5c-.1.1-.3.2-.5.2zm45.1-.7c0-.4.3-.7.7-.7.4 0 .7.3.7.7 0 .4-.3.7-.7.7-.3 0-.7-.3-.7-.7zm-2.7 0c0-.4.3-.7.7-.7.4 0 .7.3.7.7 0 .4-.3.7-.7.7-.3 0-.7-.3-.7-.7zm-2.7 0c0-.4.3-.7.7-.7.4 0 .7.3.7.7 0 .4-.3.7-.7.7-.3 0-.7-.3-.7-.7zm-2.7 0c0-.4.3-.7.7-.7.4 0 .7.3.7.7 0 .4-.3.7-.7.7-.3 0-.7-.3-.7-.7zm-2.7 0c0-.4.3-.7.7-.7.4 0 .7.3.7.7 0 .4-.3.7-.7.7-.3 0-.7-.3-.7-.7zm-2.6 0c0-.4.3-.7.7-.7.4 0 .7.3.7.7 0 .4-.3.7-.7.7-.4 0-.7-.3-.7-.7zm-2.7 0c0-.4.3-.7.7-.7.4 0 .7.3.7.7 0 .4-.3.7-.7.7-.4 0-.7-.3-.7-.7zm-2.7 0c0-.4.3-.7.7-.7.4 0 .7.3.7.7 0 .4-.3.7-.7.7-.4 0-.7-.3-.7-.7zm-2.7 0c0-.4.3-.7.7-.7.4 0 .7.3.7.7 0 .4-.3.7-.7.7-.4 0-.7-.3-.7-.7zm-2.7 0c0-.4.3-.7.7-.7.4 0 .7.3.7.7 0 .4-.3.7-.7.7-.4 0-.7-.3-.7-.7zm-2.7 0c0-.4.3-.7.7-.7.4 0 .7.3.7.7 0 .4-.3.7-.7.7-.4 0-.7-.3-.7-.7zm-2.7 0c0-.4.3-.7.7-.7.4 0 .7.3.7.7 0 .4-.3.7-.7.7-.4 0-.7-.3-.7-.7zm-2.7 0c0-.4.3-.7.7-.7.4 0 .7.3.7.7 0 .4-.3.7-.7.7-.4 0-.7-.3-.7-.7zm-2.7 0c0-.4.3-.7.7-.7.4 0 .7.3.7.7 0 .4-.3.7-.7.7-.4 0-.7-.3-.7-.7zm-2.7 0c0-.4.3-.7.7-.7.4 0 .7.3.7.7 0 .4-.3.7-.7.7-.4 0-.7-.3-.7-.7zm-2.7 0c0-.4.3-.7.7-.7.4 0 .7.3.7.7 0 .4-.3.7-.7.7-.4 0-.7-.3-.7-.7zm-2.7 0c0-.4.3-.7.7-.7.4 0 .7.3.7.7 0 .4-.3.7-.7.7-.4 0-.7-.3-.7-.7zm46.6.7c-.2 0-.4-.1-.5-.2-.1-.1-.2-.3-.2-.5s.1-.4.2-.5c.1-.1.3-.2.5-.2s.4.1.5.2c.1.1.2.3.2.5s-.1.4-.2.5c-.2.1-.3.2-.5.2zm-.8 36.9c0-.4.3-.7.7-.7.4 0 .7.3.7.7 0 .4-.3.7-.7.7-.3.1-.7-.3-.7-.7zm0-2.7c0-.4.3-.7.7-.7.4 0 .7.3.7.7 0 .4-.3.7-.7.7-.3.1-.7-.3-.7-.7zm0-2.7c0-.4.3-.7.7-.7.4 0 .7.3.7.7 0 .4-.3.7-.7.7-.3.1-.7-.3-.7-.7zm0-2.6c0-.4.3-.7.7-.7.4 0 .7.3.7.7 0 .4-.3.7-.7.7-.3 0-.7-.3-.7-.7zm0-2.7c0-.4.3-.7.7-.7.4 0 .7.3.7.7 0 .4-.3.7-.7.7-.3 0-.7-.3-.7-.7zm0-2.7c0-.4.3-.7.7-.7.4 0 .7.3.7.7 0 .4-.3.7-.7.7-.3 0-.7-.3-.7-.7zm0-2.7c0-.4.3-.7.7-.7.4 0 .7.3.7.7 0 .4-.3.7-.7.7-.3 0-.7-.3-.7-.7zm0-2.7c0-.4.3-.7.7-.7.4 0 .7.3.7.7 0 .4-.3.7-.7.7-.3 0-.7-.3-.7-.7zm0-2.7c0-.4.3-.7.7-.7.4 0 .7.3.7.7 0 .4-.3.7-.7.7-.3 0-.7-.3-.7-.7zm0-2.7c0-.4.3-.7.7-.7.4 0 .7.3.7.7 0 .4-.3.7-.7.7-.3.1-.7-.3-.7-.7zm0-2.7c0-.4.3-.7.7-.7.4 0 .7.3.7.7 0 .4-.3.7-.7.7-.3.1-.7-.3-.7-.7zm0-2.7c0-.4.3-.7.7-.7.4 0 .7.3.7.7 0 .4-.3.7-.7.7-.3.1-.7-.3-.7-.7zm0-2.6c0-.4.3-.7.7-.7.4 0 .7.3.7.7 0 .4-.3.7-.7.7-.3 0-.7-.3-.7-.7zm0-2.7c0-.4.3-.7.7-.7.4 0 .7.3.7.7 0 .4-.3.7-.7.7-.3 0-.7-.3-.7-.7z"/><path class="st1" d="M5 10.7h17.4v12H5z"/><path class="st0" d="M22.4 23.4H5c-.4 0-.7-.3-.7-.7v-12c0-.4.3-.7.7-.7h17.4c.4 0 .7.3.7.7v12c0 .4-.3.7-.7.7zM5.7 21.9h15.9V11.4H5.7v10.5z"/><path class="st1" d="M5 10.7l8.7 7.1 8.7-7.1z"/><path class="st0" d="M13.7 18.5c-.2 0-.3-.1-.5-.2l-8.7-7.1c-.2-.2-.3-.5-.2-.8.1-.3.3-.5.7-.5h17.4c.3 0 .6.2.7.5.1.3 0 .6-.2.8l-8.7 7.1c-.2.1-.4.2-.5.2zM7 11.4l6.6 5.4 6.6-5.4H7z"/><path class="st1" d="M5 22.7l6.4-6.2L5 22.7z"/><path class="st0" d="M5 23.4c-.2 0-.4-.1-.5-.2-.3-.3-.3-.8 0-1l6.4-6.2c.3-.3.8-.3 1 0 .3.3.3.8 0 1l-6.4 6.2c-.2.1-.4.2-.5.2z"/><path class="st1" d="M22.4 22.7L16 16.5l6.4 6.2z"/><path class="st0" d="M22.4 23.4c-.2 0-.4-.1-.5-.2L15.4 17c-.3-.3-.3-.7 0-1 .3-.3.7-.3 1 0l6.4 6.2c.3.3.3.7 0 1-.1.1-.3.2-.4.2z"/><path class="st2" d="M43.5 17.2l-10.3-4 .8-3.1L44.3 14z"/><path class="st0" d="M43.5 17.9h-.3l-10.2-4c-.3-.1-.5-.5-.4-.9l.8-3.2c.1-.2.2-.4.4-.5.2-.1.4-.1.6 0l10.3 3.9c.3.1.5.5.4.9l-.8 3.2c-.1.2-.2.4-.4.5-.2.1-.3.1-.4.1zm-9.4-5.1l8.9 3.4.5-1.7-9-3.5-.4 1.8z"/><path class="st2" d="M44.3 14l-2.8 10.7L44.3 14z"/><path class="st0" d="M41.6 25.4h-.2c-.4-.1-.6-.5-.5-.9l2.8-10.7c.1-.4.5-.6.9-.5s.6.5.5.9l-2.8 10.7c-.1.3-.4.5-.7.5z"/><path class="st2" d="M34 10.1l-2.8 10.7L34 10.1z"/><path class="st0" d="M31.3 21.5h-.2c-.4-.1-.6-.5-.5-.9l2.8-10.7c.1-.4.5-.6.9-.5.4.1.6.5.5.9L32 20.9c-.1.4-.4.6-.7.6z"/><ellipse transform="rotate(-75.522 29.732 20.359)" class="st2" cx="29.7" cy="20.4" rx="1.6" ry="1.6"/><path class="st0" d="M29.7 22.7c-.2 0-.4 0-.6-.1-1.2-.3-2-1.6-1.7-2.8.3-1.2 1.6-2 2.8-1.7 1.2.3 2 1.6 1.7 2.8-.2.6-.5 1.1-1.1 1.4-.2.3-.7.4-1.1.4zm-.8-2.6c-.1.5.2.9.6 1 .2.1.5 0 .6-.1.2-.1.3-.3.4-.5.1-.2 0-.5-.1-.6-.1-.2-.3-.3-.5-.4-.4-.1-.9.2-1 .6z"/><ellipse transform="rotate(-75.522 40.025 24.305)" class="st2" cx="40" cy="24.3" rx="1.6" ry="1.6"/><path class="st0" d="M40 26.6c-.2 0-.4 0-.6-.1-1.2-.3-2-1.6-1.7-2.8.3-1.2 1.6-2 2.8-1.7 1.2.3 2 1.6 1.7 2.8-.2.6-.5 1.1-1.1 1.4-.3.3-.7.4-1.1.4zm-.8-2.5c-.1.2 0 .5.1.6.1.2.3.3.5.4.2.1.5 0 .6-.1.2-.1.3-.3.4-.5.1-.2 0-.5-.1-.6s-.3-.3-.5-.4c-.2-.1-.5 0-.6.1-.2.1-.3.3-.4.5z"/><path class="st1" d="M41.5 32.8h-12c-2.5 0-4.6 2.1-4.6 4.6 0 2.5 2.1 4.6 4.6 4.6 2.1 0 3.8-1.4 4.4-3.2h3.3c.6 1.9 2.3 3.2 4.4 3.2 2.5 0 4.6-2.1 4.6-4.6-.1-2.5-2.1-4.6-4.7-4.6z"/><path class="st0" d="M41.5 42.8c-2.2 0-4.1-1.3-4.9-3.2h-2.2c-.8 2-2.7 3.2-4.9 3.2-2.9 0-5.3-2.4-5.3-5.3s2.4-5.3 5.3-5.3h12.1c2.9 0 5.3 2.4 5.3 5.3s-2.4 5.3-5.4 5.3zm-7.6-4.7h3.3c.3 0 .6.2.7.5.5 1.6 2 2.7 3.7 2.7 2.1 0 3.9-1.7 3.9-3.9 0-2.1-1.7-3.9-3.9-3.9H29.5c-2.1 0-3.9 1.7-3.9 3.9 0 2.1 1.7 3.9 3.9 3.9 1.7 0 3.2-1.1 3.7-2.7.1-.3.4-.5.7-.5z"/><path class="st1" d="M29.7 35.7v3.2-3.2z"/><path class="st0" d="M29.7 39.6c-.4 0-.7-.3-.7-.7v-3.2c0-.4.3-.7.7-.7.4 0 .7.3.7.7v3.2c.1.4-.3.7-.7.7z"/><path class="st1" d="M31.3 37.3h-3.2 3.2z"/><path class="st0" d="M31.3 38h-3.2c-.4 0-.7-.3-.7-.7 0-.4.3-.7.7-.7h3.2c.4 0 .7.3.7.7.1.4-.3.7-.7.7z"/><circle class="st0" cx="41.6" cy="35.7" r=".6"/><circle class="st0" cx="41.6" cy="38.7" r=".6"/><circle class="st0" cx="43.1" cy="37.2" r=".6"/><circle class="st0" cx="40.1" cy="37.2" r=".6"/><path class="st2" d="M14.2 28.3l1.4 4.3c.1.2.3.4.5.4h4.5c.5 0 .7.6.3.9l-3.7 2.7c-.2.1-.2.3-.2.5l1.4 4.3c.2.5-.4.9-.8.6L14 39.4c-.2-.1-.4-.1-.6 0L9.7 42c-.4.3-1-.1-.8-.6l1.4-4.3c.1-.2 0-.5-.2-.6l-3.7-2.7c-.4-.3-.2-.9.3-.9h4.5c.2 0 .4-.1.5-.4l1.4-4.3c.2-.4.9-.4 1.1.1z"/><path class="st0" d="M9.4 42.9c-.3 0-.5-.1-.7-.2-.4-.3-.6-.9-.5-1.4L9.5 37 6 34.5c-.4-.3-.6-.9-.5-1.4.2-.5.7-.9 1.2-.9h4.4l1.4-4.2c.2-.5.7-.9 1.2-.9s1 .3 1.2.9l1.4 4.2h4.4c.5 0 1 .3 1.2.9.2.5 0 1.1-.5 1.4L17.8 37l1.4 4.2c.2.5 0 1.1-.5 1.4-.4.3-1 .3-1.5 0L13.7 40l-3.5 2.6c-.3.2-.6.3-.8.3zm4.3-4.4c.3 0 .5.1.7.2l3.1 2.3-1.2-3.7c-.2-.5 0-1.1.5-1.4l3.1-2.3H16c-.5 0-1-.3-1.2-.9L13.6 29l-1.2 3.7c-.2.5-.7.9-1.2.9H7.4l3.1 2.3c.4.3.6.9.5 1.4L9.8 41l3.1-2.3c.2-.1.5-.2.8-.2z"/></g></switch></svg>