<svg version="1.1" id="Слой_1" xmlns="http://www.w3.org/2000/svg" xmlns:xlink="http://www.w3.org/1999/xlink" x="0" y="0" viewBox="0 0 50 50" xml:space="preserve"><style>.st1{fill:#231f20}.st2{fill:#fff}</style><path d="M31.1 32.3H12c-3.4 0-6.2-2.8-6.2-6.2V7C5.8 3.6 8.6.8 12 .8h19.2c3.4 0 6.2 2.8 6.2 6.2v19.2c-.1 3.3-2.9 6.1-6.3 6.1z" fill="#9fd8f4"/><path class="st1" d="M30.3 33.1H12.8c-4.3 0-7.8-3.5-7.8-7.8V7.8C5 3.5 8.5 0 12.8 0h17.6c4.3 0 7.8 3.5 7.8 7.8v17.6c-.1 4.2-3.6 7.7-7.9 7.7zM12.8 1.6c-3.4 0-6.1 2.7-6.1 6.1v17.6c0 3.4 2.7 6.1 6.1 6.1h17.6c3.4 0 6.1-2.7 6.1-6.1V7.8c0-3.4-2.7-6.1-6.1-6.1H12.8z"/><path class="st2" d="M23 42.1v-6.5c0-.9.3-1.8.8-2.6l1.2-1.7c.3-.4.4-.8.4-1.3v-8.1c0-1.4 1.1-2.5 2.5-2.5s2.5 1.1 2.5 2.5c0 .2.2 4.5.4 4.5h1.9c1.3 0 2.3 1 2.3 2.3v.4h1.2c1.3 0 2.4 1.1 2.4 2.4 1.2 0 2.3 1 2.3 2.3v8.4c0 1.1-.2 2.1-.6 3.1l-1.1 2.5c-.3.8-1.1 1.3-2 1.3H26.8c-.9 0-1.6-.5-2-1.3l-1.1-2.5c-.4-1-.7-2.1-.7-3.2z"/><path class="st1" d="M37 50H26.8c-1.2 0-2.3-.7-2.8-1.8l-1.1-2.5c-.5-1.1-.8-2.4-.8-3.6v-6.5c0-1.1.3-2.1.9-3l1.2-1.7c.2-.2.3-.5.3-.8V22c0-1.8 1.5-3.3 3.3-3.3 1.8 0 3.3 1.5 3.3 3.3 0 .4.1 2.6.2 3.7h1.2c1.6 0 2.9 1.2 3.1 2.7h.4c1.5 0 2.8 1.1 3.2 2.5 1.3.3 2.3 1.6 2.3 3v8.4c0 1.2-.2 2.4-.7 3.5l-1.1 2.5c-.3.9-1.4 1.7-2.7 1.7zm-9.2-29.8c-.9 0-1.6.7-1.6 1.6V30c0 .6-.2 1.3-.6 1.8l-1.2 1.7c-.4.6-.6 1.3-.6 2.1v6.5c0 1 .2 2 .6 2.9l1.1 2.5c.2.5.7.8 1.2.8H37c.5 0 1-.3 1.2-.8l1.1-2.5c.4-.9.6-1.8.6-2.8v-8.4c0-.8-.6-1.4-1.4-1.4-.5 0-.8-.4-.8-.8 0-.9-.7-1.6-1.6-1.6h-1.2c-.5 0-.8-.4-.8-.8v-.4c0-.8-.7-1.5-1.5-1.5h-1.9c-.2 0-.7-.1-.9-.8 0-.1-.1-.3-.1-.6 0-.4-.1-.9-.1-1.5-.1-1.1-.1-2.3-.1-2.4-.1-1.1-.8-1.8-1.7-1.8z"/><path class="st2" d="M15.4 20s.8-13.2 14.8-16.4c2 9.2-14.8 16.4-14.8 16.4z"/><path class="st1" d="M15.4 20.9c-.2 0-.3-.1-.5-.2-.2-.2-.4-.4-.4-.7 0-.1.2-3.5 2.3-7.4 1.2-2.3 2.7-4.2 4.6-5.8 2.4-2 5.2-3.3 8.5-4.1.2-.1.4 0 .6.1.3.2.4.4.5.6.5 2.3 0 4.7-1.6 7.1-1.2 1.8-3 3.7-5.4 5.4-4 3-8.1 4.8-8.3 4.9-.1 0-.2.1-.3.1zM29.5 4.6c-2.7.7-5 1.9-6.9 3.5-1.7 1.4-3.1 3.2-4.2 5.2s-1.6 3.9-1.8 5.2c3.6-1.8 13.4-7.3 12.9-13.9z"/><path class="st1" d="M13.1 27.1h-.2c-.4-.1-.7-.6-.6-1 1.8-6.7 4.9-11.2 7.1-13.8 2.5-2.8 4.5-4.1 4.6-4.1.4-.2.9-.1 1.2.3.2.4.1.9-.3 1.2 0 0-1.9 1.2-4.2 3.8-2.1 2.4-5 6.7-6.7 13-.2.3-.5.6-.9.6z"/><path class="st2" d="M13.1 28.9h5.7-5.7z"/><path class="st1" d="M18.8 29.7h-5.7c-.5 0-.8-.4-.8-.8 0-.5.4-.8.8-.8h5.7c.5 0 .8.4.8.8s-.4.8-.8.8z"/></svg>