<svg id="Слой_1" data-name="Слой 1" xmlns="http://www.w3.org/2000/svg" viewBox="0 0 42.44 50"><defs><style>.cls-1{fill:#fff}.cls-2{fill:#231f20}</style></defs><path class="cls-1" d="M41.6 49.16H.84l5.83-11.28h29.1l5.83 11.28z"/><path class="cls-2" d="M45.81 50.19H5.05a.83.83 0 0 1-.72-.4.85.85 0 0 1 0-.82l5.83-11.29a.84.84 0 0 1 .75-.45H40a.82.82 0 0 1 .74.45L46.55 49a.84.84 0 0 1-.74 1.22zM6.42 48.51h38l-5-9.61H11.39z" transform="translate(-4.21 -.19)"/><path d="M39.54 15.13a14.11 14.11 0 0 0-28.22 0S11 29.33 25.43 43.79c14.46-14.46 14.11-28.66 14.11-28.66z" transform="translate(-4.21 -.19)" fill="#9fd8f4"/><path class="cls-2" d="M25.43 44.62a.83.83 0 0 1-.6-.24 55.53 55.53 0 0 1-8.43-10.74 45.92 45.92 0 0 1-4.25-9.35 30.75 30.75 0 0 1-1.67-9.16 14.95 14.95 0 0 1 29.89 0 30.41 30.41 0 0 1-1.67 9.16 45.92 45.92 0 0 1-4.25 9.35A55.14 55.14 0 0 1 26 44.38a.82.82 0 0 1-.57.24zm0-42.76a13.29 13.29 0 0 0-13.27 13.27 29.55 29.55 0 0 0 1.61 8.7 44.72 44.72 0 0 0 4.1 9 52.89 52.89 0 0 0 7.56 9.76A53.26 53.26 0 0 0 33 32.83a43.64 43.64 0 0 0 4.1-9 29.8 29.8 0 0 0 1.62-8.71A13.29 13.29 0 0 0 25.43 1.86z" transform="translate(-4.21 -.19)"/><circle class="cls-1" cx="21.22" cy="15.8" r="7.38"/><path class="cls-2" d="M25.43 24.21A8.22 8.22 0 1 1 33.65 16a8.23 8.23 0 0 1-8.22 8.21zm0-14.76A6.54 6.54 0 1 0 32 16a6.55 6.55 0 0 0-6.57-6.55z" transform="translate(-4.21 -.19)"/><path class="cls-2" d="M25.43 18.19a.83.83 0 0 1-.58-.23l-3.25-3.09a.83.83 0 1 1 1.15-1.21l2.55 2.42 6.83-9.56a.84.84 0 1 1 1.36 1l-7.38 10.32a.82.82 0 0 1-.6.35z" transform="translate(-4.21 -.19)"/></svg>