<svg version="1.1" id="Слой_1" xmlns="http://www.w3.org/2000/svg" xmlns:xlink="http://www.w3.org/1999/xlink" x="0" y="0" viewBox="0 0 50 50" xml:space="preserve"><style>.st0{fill:#fff}.st1{fill:#231f20}</style><switch><g><path class="st0" d="M45.8 49.3H5l5.9-11.2H40z"/><path class="st1" d="M45.8 50.2H5c-.3 0-.6-.2-.7-.4-.2-.2-.2-.6 0-.8l5.8-11.3c.1-.3.4-.5.7-.5H40c.3 0 .6.2.7.5L46.6 49c.1.3.1.6 0 .8-.2.2-.5.4-.8.4zM6.4 48.5h38l-5-9.6h-28l-5 9.6z"/><path d="M39.5 15.1C39.5 7.3 33.2 1 25.4 1S11.3 7.3 11.3 15.1c0 0-.4 14.2 14.1 28.7 14.5-14.5 14.1-28.7 14.1-28.7z" fill="#9fd8f4"/><path class="st1" d="M25.4 44.6c-.2 0-.4-.1-.6-.2-3.3-3.3-6.2-7-8.4-10.7-1.8-3-3.2-6.2-4.2-9.3-1.7-5.3-1.7-8.9-1.7-9.2C10.5 7 17.2.3 25.4.3S40.3 7 40.3 15.2c0 .3 0 3.8-1.7 9.2-1 3.2-2.4 6.3-4.2 9.3-2.2 3.8-5.1 7.4-8.4 10.7-.1.1-.4.2-.6.2zm0-42.7c-7.3 0-13.3 6-13.3 13.3 0 0-.1 3.5 1.6 8.7 1 3 2.4 6.1 4.1 9 2 3.4 4.6 6.7 7.6 9.8 3-3.1 5.5-6.3 7.6-9.8 1.7-2.9 3.1-5.9 4.1-9 1.7-5.2 1.6-8.7 1.6-8.7 0-7.4-6-13.3-13.3-13.3z"/><circle class="st0" cx="25.4" cy="16" r="7.4"/><path class="st1" d="M25.4 24.2c-4.5 0-8.2-3.7-8.2-8.2 0-4.5 3.7-8.2 8.2-8.2 4.5 0 8.2 3.7 8.2 8.2 0 4.5-3.6 8.2-8.2 8.2zm0-14.8c-3.6 0-6.5 2.9-6.5 6.5s2.9 6.5 6.5 6.5 6.5-2.9 6.5-6.5-2.9-6.5-6.5-6.5z"/><path class="st1" d="M25.4 18.2c-.2 0-.4-.1-.6-.2l-3.3-3.1c-.3-.3-.3-.8 0-1.2.3-.3.8-.3 1.2 0l2.6 2.4 6.8-9.6c.3-.4.8-.5 1.2-.2.4.3.5.8.2 1.2l-7.4 10.3c-.1.2-.4.4-.7.4.1 0 .1 0 0 0z"/></g></switch></svg>