<svg version="1.1" id="Слой_1" xmlns="http://www.w3.org/2000/svg" xmlns:xlink="http://www.w3.org/1999/xlink" x="0" y="0" viewBox="0 0 50 50" xml:space="preserve"><style>.st0{fill:#231f20}.st2{fill:#fff}</style><path class="st0" d="M26.3 50H8.5c-3.4 0-6.1-2.7-6.1-6.1V8.3c0-3.4 2.7-6.1 6.1-6.1h17.8c3.4 0 6.1 2.7 6.1 6.1v35.6c0 3.3-2.7 6.1-6.1 6.1zM8.5 3.9c-2.4 0-4.4 2-4.4 4.4v35.6c0 2.4 2 4.4 4.4 4.4h17.8c2.4 0 4.4-2 4.4-4.4V8.3c0-2.4-2-4.4-4.4-4.4H8.5z"/><path class="st0" d="M31.5 41.3H3.3c-.5 0-.9-.4-.9-.9V8.3c0-.5.4-.9.9-.9h28.3c.5 0 .9.4.9.9v32.2c-.1.4-.5.8-1 .8zM4.1 39.6h26.5V9.1H4.1v30.5zm16 5.8h-5.4c-.5 0-.9-.4-.9-.9s.4-.9.9-.9h5.4c.5 0 .9.4.9.9s-.4.9-.9.9z"/><path d="M41.3 24.1c5.3-5.3 5.3-14 0-19.3C36-.5 27.3-.5 22 4.8c-4 4-5 10-2.9 15l-1.4 8.6 8.6-1.4c5 2.1 11 1.1 15-2.9z" fill="#9fd8f4"/><path class="st0" d="M17.8 29.2c-.2 0-.5-.1-.6-.3-.2-.2-.3-.5-.2-.8l1.3-8.4c-1-2.6-1.3-5.4-.8-8.1.5-2.9 1.9-5.5 4-7.6C27.2-1.7 36.4-1.7 42 4c5.7 5.7 5.7 14.9 0 20.5-2.1 2.1-4.7 3.5-7.6 4-2.7.5-5.5.2-8.1-.8L17.9 29c0 .2-.1.2-.1.2zM31.7 1.7c-3.3 0-6.5 1.2-9 3.7-1.8 1.8-3 4.1-3.5 6.7-.5 2.5-.2 5 .8 7.3.1.2.1.3.1.5l-1.2 7.4 7.4-1.2c.2 0 .3 0 .5.1 2.3 1 4.8 1.3 7.3.8s4.8-1.7 6.7-3.5c5-5 5-13.1 0-18-2.6-2.6-5.8-3.8-9.1-3.8z"/><path class="st2" d="M23.4 8.9H40v11.4H23.4z"/><path class="st0" d="M40 21.2H23.4c-.5 0-.9-.4-.9-.9V8.9c.1-.5.5-.9.9-.9H40c.5 0 .9.4.9.9v11.4c0 .5-.4.9-.9.9zm-15.7-1.8h14.8V9.8H24.3v9.6z"/><path class="st2" d="M23.4 8.9l8.3 7.4L40 8.9z"/><path class="st0" d="M31.7 17.2c-.2 0-.4-.1-.6-.2l-8.3-7.4c-.3-.2-.4-.6-.2-1s.5-.6.8-.6H40c.4 0 .7.2.8.6.1.3 0 .7-.2 1L32.3 17c-.1.1-.4.2-.6.2zm-6-7.4l6 5.4 6-5.4h-12z"/></svg>