<svg version="1.1" id="Слой_1" xmlns="http://www.w3.org/2000/svg" xmlns:xlink="http://www.w3.org/1999/xlink" x="0" y="0" viewBox="0 0 50 50" xml:space="preserve"><style>.st0{fill:#9fd8f4}.st1{fill:#231f20}.st2{fill:#fff}</style><switch><g><path transform="rotate(-18.886 15.114 23.495)" class="st0" d="M3.6 13.5h23.1v19.9H3.6z"/><path class="st1" d="M7.4 37.3c-.1 0-.2 0-.3-.1-.1 0-.3-.2-.3-.3L.3 18c-.1-.3.1-.7.4-.8l21.9-7.5c.3-.1.7.1.8.4L29.9 29c.1.2 0 .3 0 .5-.1.2-.2.3-.4.3L7.6 37.3h-.2zM1.8 18.2l6 17.6 20.7-7.1-6-17.6-20.7 7.1z"/><path transform="rotate(-18.886 19.313 35.768)" class="st2" d="M7.7 32.8h23.1v6H7.7z"/><path class="st1" d="M9.3 43c-.3 0-.5-.2-.6-.4l-1.9-5.7c-.1-.2 0-.3 0-.5s.2-.3.4-.4l21.9-7.5c.2-.1.3 0 .5 0 .2.1.3.2.3.4l1.9 5.7c.1.3-.1.7-.4.8L9.6 43h-.3zm-1.1-5.9l1.5 4.5 20.7-7.1-1.5-4.5-20.7 7.1z"/><path class="st2" d="M8.9 30.2l1.9-6 2.7 1.5 2.1-7.2 8.7 6.4z"/><path class="st1" d="M8.9 30.8c-.2 0-.3-.1-.5-.2-.2-.2-.2-.4-.2-.7l1.9-6c.1-.2.2-.3.4-.4.2-.1.4-.1.6 0l2 1.1 1.9-6.4c.1-.2.2-.4.4-.4.2-.1.4 0 .6.1l8.7 6.4c.2.1.3.4.3.6 0 .2-.2.4-.4.5L9.1 30.8h-.2zm2.3-5.7l-1.3 4L23 24.7l-7-5.1-1.9 6.3c-.1.2-.2.3-.4.4-.2.1-.4.1-.6 0l-1.9-1.2z"/><path class="st0" d="M15.9 7.4H39v19.9H15.9z"/><path class="st1" d="M39.1 27.9H15.9c-.4 0-.6-.3-.6-.6V7.4c0-.4.3-.6.6-.6H39c.4 0 .6.3.6.6v19.9c.1.3-.2.6-.5.6zm-22.5-1.3h21.8V8H16.6v18.6z"/><path class="st2" d="M15.9 27.3H39v6H15.9z"/><path class="st1" d="M39.1 33.9H15.9c-.4 0-.6-.3-.6-.6v-6c0-.4.3-.6.6-.6H39c.4 0 .6.3.6.6v6c.1.4-.2.6-.5.6zm-22.5-1.3h21.8v-4.7H16.6v4.7z"/><path class="st2" d="M19.4 21.6l3.8-5 2 2.3 4.4-6.1 6.2 8.8z"/><path class="st1" d="M35.8 22.3H19.4c-.2 0-.5-.1-.6-.4-.1-.2-.1-.5.1-.7l3.7-5c.1-.2.3-.3.5-.3s.4.1.5.2l1.5 1.7 3.9-5.4c.1-.2.3-.3.5-.3s.4.1.5.3l6.2 8.8c.1.2.2.5 0 .7 0 .2-.2.4-.4.4zM20.7 21h13.8l-4.9-7.1-3.8 5.3c-.1.2-.3.3-.5.3s-.4-.1-.5-.2l-1.5-1.7-2.6 3.4z"/><path class="st2" d="M49.7 34.3l-7.9-5.1v2.2h-5.1c-1.9 0-3.5 1.5-3.5 3.5v7.6h5.9v-4c0-.6.5-1.1 1.1-1.1h1.5v2.2l8-5.3z"/><path class="st1" d="M39.1 43h-5.9c-.4 0-.6-.3-.6-.6v-7.6c0-2.3 1.8-4.1 4.1-4.1h4.4v-1.5c0-.2.1-.5.3-.6.2-.1.5-.1.7 0l7.9 5.1c.2.1.3.3.3.5s-.1.4-.3.5l-7.9 5.1c-.2.1-.5.1-.7 0s-.3-.3-.3-.6v-1.5h-.9c-.3 0-.5.2-.5.5v4c.1.5-.2.8-.6.8zm-5.2-1.3h4.6v-3.4c0-1 .8-1.8 1.8-1.8h1.5c.4 0 .6.3.6.6v1l6-3.9-6-3.9v1c0 .4-.3.6-.6.6h-5.1c-1.5 0-2.8 1.3-2.8 2.8v7z"/></g></switch></svg>